<mxfile host="app.diagrams.net" agent="Mozilla/5.0 (Macintosh; Intel Mac OS X 10_15_7) AppleWebKit/537.36 (KHTML, like Gecko) Chrome/131.0.0.0 Safari/537.36" version="24.9.0">
  <diagram id="fQw--9y188VEwE8I2MEH" name="Page-1">
    <mxGraphModel dx="155" dy="726" grid="1" gridSize="10" guides="1" tooltips="1" connect="1" arrows="1" fold="1" page="1" pageScale="1" pageWidth="850" pageHeight="1100" math="0" shadow="0">
      <root>
        <mxCell id="0" />
        <mxCell id="1" parent="0" />
        <mxCell id="D9Ns9_MXgBlrkdU56EB6-1" value="" style="group;movable=1;resizable=1;rotatable=1;deletable=1;editable=1;locked=0;connectable=1;" parent="1" vertex="1" connectable="0">
          <mxGeometry x="1550" y="110" width="1150" height="960" as="geometry" />
        </mxCell>
        <mxCell id="D9Ns9_MXgBlrkdU56EB6-2" value="" style="rounded=0;whiteSpace=wrap;html=1;fillColor=none;movable=1;resizable=1;rotatable=1;deletable=1;editable=1;locked=0;connectable=1;imageAspect=0;" parent="D9Ns9_MXgBlrkdU56EB6-1" vertex="1">
          <mxGeometry width="1150" height="960.0000000000001" as="geometry" />
        </mxCell>
        <mxCell id="D9Ns9_MXgBlrkdU56EB6-3" value="Заголовок:&lt;div&gt;&lt;p style=&quot;margin: 0px; font-variant-numeric: normal; font-variant-east-asian: normal; font-variant-alternates: normal; font-size-adjust: none; font-kerning: auto; font-optical-sizing: auto; font-feature-settings: normal; font-variation-settings: normal; font-variant-position: normal; font-variant-emoji: normal; font-stretch: normal; font-size: 14px; line-height: normal; font-family: &amp;quot;.AppleSystemUIFont&amp;quot;; color: rgb(14, 14, 14); text-align: start;&quot; class=&quot;p1&quot;&gt;Выполнение вычислений на удаленном сервере&lt;/p&gt;&lt;/div&gt;" style="rounded=0;whiteSpace=wrap;html=1;fillColor=none;movable=1;resizable=1;rotatable=1;deletable=1;editable=1;locked=0;connectable=1;" parent="D9Ns9_MXgBlrkdU56EB6-1" vertex="1">
          <mxGeometry y="885.0000000000001" width="1150" height="75" as="geometry" />
        </mxCell>
        <mxCell id="D9Ns9_MXgBlrkdU56EB6-4" value="узел:&lt;div&gt;А-0&lt;/div&gt;" style="rounded=0;whiteSpace=wrap;html=1;fillColor=none;movable=1;resizable=1;rotatable=1;deletable=1;editable=1;locked=0;connectable=1;" parent="D9Ns9_MXgBlrkdU56EB6-1" vertex="1">
          <mxGeometry y="885.0000000000001" width="176.92430555555555" height="75" as="geometry" />
        </mxCell>
        <mxCell id="D9Ns9_MXgBlrkdU56EB6-5" value="Номер:&lt;div&gt;1&lt;/div&gt;" style="rounded=0;whiteSpace=wrap;html=1;fillColor=none;movable=1;resizable=1;rotatable=1;deletable=1;editable=1;locked=0;connectable=1;" parent="D9Ns9_MXgBlrkdU56EB6-1" vertex="1">
          <mxGeometry x="973.0756944444445" y="885.0000000000001" width="176.92430555555555" height="75" as="geometry" />
        </mxCell>
        <mxCell id="D9Ns9_MXgBlrkdU56EB6-6" value="IDEF0 (TO-BE)" style="rounded=0;whiteSpace=wrap;html=1;fillColor=none;movable=1;resizable=1;rotatable=1;deletable=1;editable=1;locked=0;connectable=1;" parent="D9Ns9_MXgBlrkdU56EB6-1" vertex="1">
          <mxGeometry width="1150" height="60.00000000000001" as="geometry" />
        </mxCell>
        <mxCell id="jczUA39xuyqM4jGfMrnq-26" value="ТОЧКА ЗРЕНИЯ: Клиент" style="text;html=1;align=center;verticalAlign=middle;whiteSpace=wrap;rounded=0;" parent="D9Ns9_MXgBlrkdU56EB6-1" vertex="1">
          <mxGeometry x="50" y="830" width="144.61" height="30" as="geometry" />
        </mxCell>
        <mxCell id="jczUA39xuyqM4jGfMrnq-27" value="ЦЕЛЬ:&amp;nbsp;Выявление проблемных областей бизнес-процесса выполнения задач на удаленных серверах&amp;nbsp;" style="text;html=1;align=left;verticalAlign=middle;whiteSpace=wrap;rounded=0;" parent="D9Ns9_MXgBlrkdU56EB6-1" vertex="1">
          <mxGeometry x="50" y="800" width="404" height="30" as="geometry" />
        </mxCell>
        <mxCell id="jczUA39xuyqM4jGfMrnq-2" value="" style="endArrow=classic;html=1;rounded=0;exitX=0.309;exitY=0.981;exitDx=0;exitDy=0;exitPerimeter=0;movable=1;resizable=1;rotatable=1;deletable=1;editable=1;locked=0;connectable=1;" parent="D9Ns9_MXgBlrkdU56EB6-1" source="jczUA39xuyqM4jGfMrnq-13" edge="1">
          <mxGeometry width="50" height="50" relative="1" as="geometry">
            <mxPoint x="216.66666666666697" y="157.5" as="sourcePoint" />
            <mxPoint x="300" y="407.5" as="targetPoint" />
          </mxGeometry>
        </mxCell>
        <mxCell id="jczUA39xuyqM4jGfMrnq-3" value="" style="endArrow=classic;html=1;rounded=0;exitX=0.083;exitY=0.5;exitDx=0;exitDy=0;exitPerimeter=0;movable=1;resizable=1;rotatable=1;deletable=1;editable=1;locked=0;connectable=1;" parent="D9Ns9_MXgBlrkdU56EB6-1" edge="1">
          <mxGeometry width="50" height="50" relative="1" as="geometry">
            <mxPoint x="160" y="367.5" as="sourcePoint" />
            <mxPoint x="300" y="367.5" as="targetPoint" />
          </mxGeometry>
        </mxCell>
        <mxCell id="jczUA39xuyqM4jGfMrnq-4" value="" style="endArrow=classic;html=1;rounded=0;entryX=0.25;entryY=0;entryDx=0;entryDy=0;movable=1;resizable=1;rotatable=1;deletable=1;editable=1;locked=0;connectable=1;exitX=0.429;exitY=1;exitDx=0;exitDy=0;exitPerimeter=0;" parent="D9Ns9_MXgBlrkdU56EB6-1" source="jczUA39xuyqM4jGfMrnq-14" edge="1">
          <mxGeometry width="50" height="50" relative="1" as="geometry">
            <mxPoint x="320" y="307.5" as="sourcePoint" />
            <mxPoint x="320" y="357.5" as="targetPoint" />
          </mxGeometry>
        </mxCell>
        <mxCell id="jczUA39xuyqM4jGfMrnq-5" value="" style="endArrow=classic;html=1;rounded=0;exitX=0.083;exitY=0.5;exitDx=0;exitDy=0;exitPerimeter=0;movable=1;resizable=1;rotatable=1;deletable=1;editable=1;locked=0;connectable=1;" parent="D9Ns9_MXgBlrkdU56EB6-1" edge="1">
          <mxGeometry width="50" height="50" relative="1" as="geometry">
            <mxPoint x="900" y="607.19" as="sourcePoint" />
            <mxPoint x="1040" y="607.19" as="targetPoint" />
          </mxGeometry>
        </mxCell>
        <mxCell id="jczUA39xuyqM4jGfMrnq-6" value="" style="endArrow=classic;html=1;rounded=0;exitX=0.083;exitY=0.5;exitDx=0;exitDy=0;exitPerimeter=0;movable=1;resizable=1;rotatable=1;deletable=1;editable=1;locked=0;connectable=1;" parent="D9Ns9_MXgBlrkdU56EB6-1" edge="1">
          <mxGeometry width="50" height="50" relative="1" as="geometry">
            <mxPoint x="900" y="575" as="sourcePoint" />
            <mxPoint x="1040" y="575" as="targetPoint" />
          </mxGeometry>
        </mxCell>
        <mxCell id="jczUA39xuyqM4jGfMrnq-7" value="I1" style="text;html=1;align=center;verticalAlign=middle;whiteSpace=wrap;rounded=0;movable=1;resizable=1;rotatable=1;deletable=1;editable=1;locked=0;connectable=1;" parent="D9Ns9_MXgBlrkdU56EB6-1" vertex="1">
          <mxGeometry x="260" y="337.5" width="30" height="30" as="geometry" />
        </mxCell>
        <mxCell id="jczUA39xuyqM4jGfMrnq-8" value="I2" style="text;html=1;align=center;verticalAlign=middle;whiteSpace=wrap;rounded=0;movable=1;resizable=1;rotatable=1;deletable=1;editable=1;locked=0;connectable=1;" parent="D9Ns9_MXgBlrkdU56EB6-1" vertex="1">
          <mxGeometry x="260" y="377.5" width="30" height="30" as="geometry" />
        </mxCell>
        <mxCell id="jczUA39xuyqM4jGfMrnq-9" value="C1" style="text;html=1;align=center;verticalAlign=middle;whiteSpace=wrap;rounded=0;movable=1;resizable=1;rotatable=1;deletable=1;editable=1;locked=0;connectable=1;" parent="D9Ns9_MXgBlrkdU56EB6-1" vertex="1">
          <mxGeometry x="290" y="327.5" width="30" height="30" as="geometry" />
        </mxCell>
        <mxCell id="jczUA39xuyqM4jGfMrnq-10" value="O1" style="text;html=1;align=center;verticalAlign=middle;whiteSpace=wrap;rounded=0;movable=1;resizable=1;rotatable=1;deletable=1;editable=1;locked=0;connectable=1;" parent="D9Ns9_MXgBlrkdU56EB6-1" vertex="1">
          <mxGeometry x="900" y="545" width="30" height="30" as="geometry" />
        </mxCell>
        <mxCell id="jczUA39xuyqM4jGfMrnq-11" value="O2" style="text;html=1;align=center;verticalAlign=middle;whiteSpace=wrap;rounded=0;movable=1;resizable=1;rotatable=1;deletable=1;editable=1;locked=0;connectable=1;" parent="D9Ns9_MXgBlrkdU56EB6-1" vertex="1">
          <mxGeometry x="900" y="577.19" width="30" height="30" as="geometry" />
        </mxCell>
        <mxCell id="jczUA39xuyqM4jGfMrnq-12" value="&lt;p class=&quot;p1&quot; style=&quot;margin: 0px; font-variant-numeric: normal; font-variant-east-asian: normal; font-variant-alternates: normal; font-size-adjust: none; font-kerning: auto; font-optical-sizing: auto; font-feature-settings: normal; font-variation-settings: normal; font-variant-position: normal; font-variant-emoji: normal; font-stretch: normal; line-height: normal; color: rgb(14, 14, 14);&quot;&gt;&lt;font style=&quot;font-size: 9px;&quot; face=&quot;Helvetica&quot;&gt;Запрос на вычисления или развертывание контейнера&lt;/font&gt;&lt;/p&gt;" style="text;html=1;align=center;verticalAlign=middle;whiteSpace=wrap;rounded=0;movable=1;resizable=1;rotatable=1;deletable=1;editable=1;locked=0;connectable=1;" parent="D9Ns9_MXgBlrkdU56EB6-1" vertex="1">
          <mxGeometry x="110" y="327.5" width="150" height="40" as="geometry" />
        </mxCell>
        <mxCell id="jczUA39xuyqM4jGfMrnq-13" value="&lt;p class=&quot;p1&quot; style=&quot;margin: 0px; font-variant-numeric: normal; font-variant-east-asian: normal; font-variant-alternates: normal; font-size-adjust: none; font-kerning: auto; font-optical-sizing: auto; font-feature-settings: normal; font-variation-settings: normal; font-variant-position: normal; font-variant-emoji: normal; font-stretch: normal; line-height: normal;&quot;&gt;&lt;font size=&quot;1&quot; color=&quot;#0e0e0e&quot;&gt;Информация о клиенте&lt;/font&gt;&lt;/p&gt;" style="text;html=1;align=center;verticalAlign=middle;whiteSpace=wrap;rounded=0;movable=1;resizable=1;rotatable=1;deletable=1;editable=1;locked=0;connectable=1;" parent="D9Ns9_MXgBlrkdU56EB6-1" vertex="1">
          <mxGeometry x="110" y="367.5" width="150" height="40" as="geometry" />
        </mxCell>
        <mxCell id="jczUA39xuyqM4jGfMrnq-14" value="&lt;p class=&quot;p1&quot; style=&quot;margin: 0px; font-variant-numeric: normal; font-variant-east-asian: normal; font-variant-alternates: normal; font-size-adjust: none; font-kerning: auto; font-optical-sizing: auto; font-feature-settings: normal; font-variation-settings: normal; font-variant-position: normal; font-variant-emoji: normal; font-stretch: normal; line-height: normal;&quot;&gt;&lt;font size=&quot;1&quot; color=&quot;#0e0e0e&quot;&gt;Ограничения по пропускной способности сети&lt;/font&gt;&lt;/p&gt;" style="text;html=1;align=center;verticalAlign=middle;whiteSpace=wrap;rounded=0;movable=1;resizable=1;rotatable=1;deletable=1;editable=1;locked=0;connectable=1;" parent="D9Ns9_MXgBlrkdU56EB6-1" vertex="1">
          <mxGeometry x="290" y="217.5" width="70" height="80" as="geometry" />
        </mxCell>
        <mxCell id="jczUA39xuyqM4jGfMrnq-15" value="" style="endArrow=classic;html=1;rounded=0;entryX=0.25;entryY=0;entryDx=0;entryDy=0;movable=1;resizable=1;rotatable=1;deletable=1;editable=1;locked=0;connectable=1;exitX=0.443;exitY=1;exitDx=0;exitDy=0;exitPerimeter=0;" parent="D9Ns9_MXgBlrkdU56EB6-1" source="jczUA39xuyqM4jGfMrnq-17" edge="1">
          <mxGeometry width="50" height="50" relative="1" as="geometry">
            <mxPoint x="400" y="307.5" as="sourcePoint" />
            <mxPoint x="399" y="357.5" as="targetPoint" />
          </mxGeometry>
        </mxCell>
        <mxCell id="jczUA39xuyqM4jGfMrnq-16" value="C2" style="text;html=1;align=center;verticalAlign=middle;whiteSpace=wrap;rounded=0;movable=1;resizable=1;rotatable=1;deletable=1;editable=1;locked=0;connectable=1;" parent="D9Ns9_MXgBlrkdU56EB6-1" vertex="1">
          <mxGeometry x="369" y="327.5" width="30" height="30" as="geometry" />
        </mxCell>
        <mxCell id="jczUA39xuyqM4jGfMrnq-17" value="&lt;p class=&quot;p1&quot; style=&quot;margin: 0px; font-variant-numeric: normal; font-variant-east-asian: normal; font-variant-alternates: normal; font-size-adjust: none; font-kerning: auto; font-optical-sizing: auto; font-feature-settings: normal; font-variation-settings: normal; font-variant-position: normal; font-variant-emoji: normal; font-stretch: normal; line-height: normal;&quot;&gt;&lt;font size=&quot;1&quot; color=&quot;#0e0e0e&quot;&gt;Политики безопасности и соответствия стандартам&lt;/font&gt;&lt;/p&gt;" style="text;html=1;align=center;verticalAlign=middle;whiteSpace=wrap;rounded=0;movable=1;resizable=1;rotatable=1;deletable=1;editable=1;locked=0;connectable=1;" parent="D9Ns9_MXgBlrkdU56EB6-1" vertex="1">
          <mxGeometry x="369" y="217.5" width="70" height="80" as="geometry" />
        </mxCell>
        <mxCell id="jczUA39xuyqM4jGfMrnq-18" value="" style="endArrow=classic;html=1;rounded=0;movable=1;resizable=1;rotatable=1;deletable=1;editable=1;locked=0;connectable=1;entryX=0.167;entryY=1;entryDx=0;entryDy=0;entryPerimeter=0;" parent="D9Ns9_MXgBlrkdU56EB6-1" target="jczUA39xuyqM4jGfMrnq-28" edge="1">
          <mxGeometry width="50" height="50" relative="1" as="geometry">
            <mxPoint x="320" y="697.5" as="sourcePoint" />
            <mxPoint x="320" y="657.5" as="targetPoint" />
          </mxGeometry>
        </mxCell>
        <mxCell id="jczUA39xuyqM4jGfMrnq-19" value="M1" style="text;html=1;align=center;verticalAlign=middle;whiteSpace=wrap;rounded=0;movable=1;resizable=1;rotatable=1;deletable=1;editable=1;locked=0;connectable=1;" parent="D9Ns9_MXgBlrkdU56EB6-1" vertex="1">
          <mxGeometry x="290" y="670" width="30" height="30" as="geometry" />
        </mxCell>
        <mxCell id="jczUA39xuyqM4jGfMrnq-20" value="&lt;p class=&quot;p1&quot; style=&quot;margin: 0px; font-variant-numeric: normal; font-variant-east-asian: normal; font-variant-alternates: normal; font-size-adjust: none; font-kerning: auto; font-optical-sizing: auto; font-feature-settings: normal; font-variation-settings: normal; font-variant-position: normal; font-variant-emoji: normal; font-stretch: normal; line-height: normal;&quot;&gt;&lt;font size=&quot;1&quot; color=&quot;#0e0e0e&quot;&gt;&amp;nbsp;Клиенты&lt;/font&gt;&lt;/p&gt;" style="text;html=1;align=center;verticalAlign=middle;whiteSpace=wrap;rounded=0;movable=1;resizable=1;rotatable=1;deletable=1;editable=1;locked=0;connectable=1;" parent="D9Ns9_MXgBlrkdU56EB6-1" vertex="1">
          <mxGeometry x="280" y="697.5" width="70" height="22.5" as="geometry" />
        </mxCell>
        <mxCell id="jczUA39xuyqM4jGfMrnq-21" value="" style="endArrow=classic;html=1;rounded=0;entryX=0.75;entryY=1;entryDx=0;entryDy=0;movable=1;resizable=1;rotatable=1;deletable=1;editable=1;locked=0;connectable=1;" parent="D9Ns9_MXgBlrkdU56EB6-1" target="jczUA39xuyqM4jGfMrnq-28" edge="1">
          <mxGeometry width="50" height="50" relative="1" as="geometry">
            <mxPoint x="390" y="697.5" as="sourcePoint" />
            <mxPoint x="409.5" y="657.5" as="targetPoint" />
          </mxGeometry>
        </mxCell>
        <mxCell id="jczUA39xuyqM4jGfMrnq-22" value="M2" style="text;html=1;align=center;verticalAlign=middle;whiteSpace=wrap;rounded=0;movable=1;resizable=1;rotatable=1;deletable=1;editable=1;locked=0;connectable=1;" parent="D9Ns9_MXgBlrkdU56EB6-1" vertex="1">
          <mxGeometry x="360" y="667.5" width="30" height="30" as="geometry" />
        </mxCell>
        <mxCell id="jczUA39xuyqM4jGfMrnq-23" value="&lt;p class=&quot;p1&quot; style=&quot;margin: 0px; font-variant-numeric: normal; font-variant-east-asian: normal; font-variant-alternates: normal; font-size-adjust: none; font-kerning: auto; font-optical-sizing: auto; font-feature-settings: normal; font-variation-settings: normal; font-variant-position: normal; font-variant-emoji: normal; font-stretch: normal; line-height: normal;&quot;&gt;&lt;font size=&quot;1&quot; color=&quot;#0e0e0e&quot;&gt;Платформа управления развертыванием&amp;nbsp;&lt;/font&gt;&lt;/p&gt;" style="text;html=1;align=center;verticalAlign=middle;whiteSpace=wrap;rounded=0;movable=1;resizable=1;rotatable=1;deletable=1;editable=1;locked=0;connectable=1;" parent="D9Ns9_MXgBlrkdU56EB6-1" vertex="1">
          <mxGeometry x="360" y="700" width="70" height="42.5" as="geometry" />
        </mxCell>
        <mxCell id="jczUA39xuyqM4jGfMrnq-24" value="&lt;p class=&quot;p1&quot; style=&quot;margin: 0px; font-variant-numeric: normal; font-variant-east-asian: normal; font-variant-alternates: normal; font-size-adjust: none; font-kerning: auto; font-optical-sizing: auto; font-feature-settings: normal; font-variation-settings: normal; font-variant-position: normal; font-variant-emoji: normal; font-stretch: normal; line-height: normal;&quot;&gt;&lt;font size=&quot;1&quot; color=&quot;#0e0e0e&quot;&gt;Выполненные задачи&lt;/font&gt;&lt;/p&gt;" style="text;html=1;align=center;verticalAlign=middle;whiteSpace=wrap;rounded=0;movable=1;resizable=1;rotatable=1;deletable=1;editable=1;locked=0;connectable=1;" parent="D9Ns9_MXgBlrkdU56EB6-1" vertex="1">
          <mxGeometry x="930" y="537.5" width="110" height="40" as="geometry" />
        </mxCell>
        <mxCell id="jczUA39xuyqM4jGfMrnq-25" value="&lt;p class=&quot;p1&quot; style=&quot;margin: 0px; font-variant-numeric: normal; font-variant-east-asian: normal; font-variant-alternates: normal; font-size-adjust: none; font-kerning: auto; font-optical-sizing: auto; font-feature-settings: normal; font-variation-settings: normal; font-variant-position: normal; font-variant-emoji: normal; font-stretch: normal; line-height: normal;&quot;&gt;&lt;font size=&quot;1&quot; color=&quot;#0e0e0e&quot;&gt;Логи выполнения&lt;/font&gt;&lt;/p&gt;" style="text;html=1;align=center;verticalAlign=middle;whiteSpace=wrap;rounded=0;movable=1;resizable=1;rotatable=1;deletable=1;editable=1;locked=0;connectable=1;" parent="D9Ns9_MXgBlrkdU56EB6-1" vertex="1">
          <mxGeometry x="940" y="567.19" width="100" height="40" as="geometry" />
        </mxCell>
        <mxCell id="jczUA39xuyqM4jGfMrnq-28" value="Получить запрос на исполниение вычислений" style="rounded=0;whiteSpace=wrap;html=1;" parent="D9Ns9_MXgBlrkdU56EB6-1" vertex="1">
          <mxGeometry x="300" y="357.5" width="120" height="60" as="geometry" />
        </mxCell>
        <mxCell id="jczUA39xuyqM4jGfMrnq-29" value="Выделить ресурсы на исполнение запроса" style="rounded=0;whiteSpace=wrap;html=1;" parent="D9Ns9_MXgBlrkdU56EB6-1" vertex="1">
          <mxGeometry x="460" y="427.5" width="120" height="60" as="geometry" />
        </mxCell>
        <mxCell id="jczUA39xuyqM4jGfMrnq-30" value="Выполненить вычисления" style="rounded=0;whiteSpace=wrap;html=1;" parent="D9Ns9_MXgBlrkdU56EB6-1" vertex="1">
          <mxGeometry x="620" y="487.5" width="120" height="60" as="geometry" />
        </mxCell>
        <mxCell id="jczUA39xuyqM4jGfMrnq-31" value="Сбрать результаты и отправить клиенту" style="rounded=0;whiteSpace=wrap;html=1;" parent="D9Ns9_MXgBlrkdU56EB6-1" vertex="1">
          <mxGeometry x="780" y="557.5" width="120" height="60" as="geometry" />
        </mxCell>
        <mxCell id="jczUA39xuyqM4jGfMrnq-32" value="" style="endArrow=classic;html=1;rounded=0;exitX=1;exitY=0.5;exitDx=0;exitDy=0;entryX=-0.005;entryY=0.333;entryDx=0;entryDy=0;entryPerimeter=0;" parent="D9Ns9_MXgBlrkdU56EB6-1" source="jczUA39xuyqM4jGfMrnq-28" target="jczUA39xuyqM4jGfMrnq-29" edge="1">
          <mxGeometry width="50" height="50" relative="1" as="geometry">
            <mxPoint x="410" y="417.5" as="sourcePoint" />
            <mxPoint x="460" y="367.5" as="targetPoint" />
            <Array as="points">
              <mxPoint x="440" y="387.5" />
              <mxPoint x="440" y="447.5" />
            </Array>
          </mxGeometry>
        </mxCell>
        <mxCell id="jczUA39xuyqM4jGfMrnq-33" value="" style="endArrow=classic;html=1;rounded=0;exitX=1;exitY=0.5;exitDx=0;exitDy=0;" parent="D9Ns9_MXgBlrkdU56EB6-1" source="jczUA39xuyqM4jGfMrnq-29" edge="1">
          <mxGeometry width="50" height="50" relative="1" as="geometry">
            <mxPoint x="540" y="487.5" as="sourcePoint" />
            <mxPoint x="620" y="507.5" as="targetPoint" />
            <Array as="points">
              <mxPoint x="600" y="457.5" />
              <mxPoint x="600" y="507.5" />
            </Array>
          </mxGeometry>
        </mxCell>
        <mxCell id="jczUA39xuyqM4jGfMrnq-34" value="" style="endArrow=classic;html=1;rounded=0;exitX=1;exitY=0.5;exitDx=0;exitDy=0;entryX=0;entryY=0.333;entryDx=0;entryDy=0;entryPerimeter=0;" parent="D9Ns9_MXgBlrkdU56EB6-1" source="jczUA39xuyqM4jGfMrnq-30" target="jczUA39xuyqM4jGfMrnq-31" edge="1">
          <mxGeometry width="50" height="50" relative="1" as="geometry">
            <mxPoint x="770" y="587.5" as="sourcePoint" />
            <mxPoint x="820" y="537.5" as="targetPoint" />
            <Array as="points">
              <mxPoint x="760" y="517.5" />
              <mxPoint x="760" y="577.5" />
            </Array>
          </mxGeometry>
        </mxCell>
        <mxCell id="jczUA39xuyqM4jGfMrnq-35" value="" style="endArrow=classic;html=1;rounded=0;exitX=1;exitY=0;exitDx=0;exitDy=0;" parent="D9Ns9_MXgBlrkdU56EB6-1" source="jczUA39xuyqM4jGfMrnq-9" edge="1">
          <mxGeometry width="50" height="50" relative="1" as="geometry">
            <mxPoint x="450" y="297.5" as="sourcePoint" />
            <mxPoint x="810" y="557.5" as="targetPoint" />
            <Array as="points">
              <mxPoint x="810" y="327.5" />
            </Array>
          </mxGeometry>
        </mxCell>
        <mxCell id="jczUA39xuyqM4jGfMrnq-36" value="" style="endArrow=classic;html=1;rounded=0;entryX=0.333;entryY=0;entryDx=0;entryDy=0;entryPerimeter=0;" parent="D9Ns9_MXgBlrkdU56EB6-1" target="jczUA39xuyqM4jGfMrnq-29" edge="1">
          <mxGeometry width="50" height="50" relative="1" as="geometry">
            <mxPoint x="500" y="327.5" as="sourcePoint" />
            <mxPoint x="500" y="417.5" as="targetPoint" />
          </mxGeometry>
        </mxCell>
        <mxCell id="jczUA39xuyqM4jGfMrnq-37" value="" style="endArrow=classic;html=1;rounded=0;entryX=0.25;entryY=0;entryDx=0;entryDy=0;" parent="D9Ns9_MXgBlrkdU56EB6-1" target="jczUA39xuyqM4jGfMrnq-30" edge="1">
          <mxGeometry width="50" height="50" relative="1" as="geometry">
            <mxPoint x="650" y="327.5" as="sourcePoint" />
            <mxPoint x="650" y="397.5" as="targetPoint" />
          </mxGeometry>
        </mxCell>
        <mxCell id="jczUA39xuyqM4jGfMrnq-38" value="" style="endArrow=classic;html=1;rounded=0;entryX=0.75;entryY=0;entryDx=0;entryDy=0;" parent="D9Ns9_MXgBlrkdU56EB6-1" target="jczUA39xuyqM4jGfMrnq-29" edge="1">
          <mxGeometry width="50" height="50" relative="1" as="geometry">
            <mxPoint x="400" y="307.5" as="sourcePoint" />
            <mxPoint x="430" y="397.5" as="targetPoint" />
            <Array as="points">
              <mxPoint x="550" y="307.5" />
            </Array>
          </mxGeometry>
        </mxCell>
        <mxCell id="jczUA39xuyqM4jGfMrnq-39" value="" style="endArrow=classic;html=1;rounded=0;entryX=0.75;entryY=0;entryDx=0;entryDy=0;" parent="D9Ns9_MXgBlrkdU56EB6-1" target="jczUA39xuyqM4jGfMrnq-30" edge="1">
          <mxGeometry width="50" height="50" relative="1" as="geometry">
            <mxPoint x="550" y="307.5" as="sourcePoint" />
            <mxPoint x="670" y="407.5" as="targetPoint" />
            <Array as="points">
              <mxPoint x="710" y="307.5" />
            </Array>
          </mxGeometry>
        </mxCell>
        <mxCell id="jczUA39xuyqM4jGfMrnq-40" value="" style="endArrow=classic;html=1;rounded=0;entryX=0.75;entryY=0;entryDx=0;entryDy=0;" parent="D9Ns9_MXgBlrkdU56EB6-1" target="jczUA39xuyqM4jGfMrnq-31" edge="1">
          <mxGeometry width="50" height="50" relative="1" as="geometry">
            <mxPoint x="710" y="307.5" as="sourcePoint" />
            <mxPoint x="870" y="407.5" as="targetPoint" />
            <Array as="points">
              <mxPoint x="870" y="307.5" />
            </Array>
          </mxGeometry>
        </mxCell>
        <mxCell id="jczUA39xuyqM4jGfMrnq-41" value="" style="endArrow=classic;html=1;rounded=0;exitX=1;exitY=0;exitDx=0;exitDy=0;" parent="D9Ns9_MXgBlrkdU56EB6-1" source="jczUA39xuyqM4jGfMrnq-22" edge="1">
          <mxGeometry width="50" height="50" relative="1" as="geometry">
            <mxPoint x="480" y="597.5" as="sourcePoint" />
            <mxPoint x="840" y="617.5" as="targetPoint" />
            <Array as="points">
              <mxPoint x="840" y="667.5" />
            </Array>
          </mxGeometry>
        </mxCell>
        <mxCell id="jczUA39xuyqM4jGfMrnq-42" value="" style="endArrow=classic;html=1;rounded=0;entryX=0.5;entryY=1;entryDx=0;entryDy=0;" parent="D9Ns9_MXgBlrkdU56EB6-1" target="jczUA39xuyqM4jGfMrnq-29" edge="1">
          <mxGeometry width="50" height="50" relative="1" as="geometry">
            <mxPoint x="520" y="667.5" as="sourcePoint" />
            <mxPoint x="530" y="547.5" as="targetPoint" />
          </mxGeometry>
        </mxCell>
        <mxCell id="jczUA39xuyqM4jGfMrnq-43" value="" style="endArrow=classic;html=1;rounded=0;entryX=0.5;entryY=1;entryDx=0;entryDy=0;" parent="D9Ns9_MXgBlrkdU56EB6-1" target="jczUA39xuyqM4jGfMrnq-30" edge="1">
          <mxGeometry width="50" height="50" relative="1" as="geometry">
            <mxPoint x="680" y="667.5" as="sourcePoint" />
            <mxPoint x="530" y="547.5" as="targetPoint" />
          </mxGeometry>
        </mxCell>
        <mxCell id="jczUA39xuyqM4jGfMrnq-45" value="" style="endArrow=none;html=1;rounded=0;" parent="D9Ns9_MXgBlrkdU56EB6-1" edge="1">
          <mxGeometry width="50" height="50" relative="1" as="geometry">
            <mxPoint x="440" y="387.5" as="sourcePoint" />
            <mxPoint x="460" y="377.5" as="targetPoint" />
          </mxGeometry>
        </mxCell>
        <mxCell id="jczUA39xuyqM4jGfMrnq-46" value="" style="endArrow=none;html=1;rounded=0;" parent="D9Ns9_MXgBlrkdU56EB6-1" edge="1">
          <mxGeometry width="50" height="50" relative="1" as="geometry">
            <mxPoint x="440" y="367.5" as="sourcePoint" />
            <mxPoint x="460" y="377.5" as="targetPoint" />
          </mxGeometry>
        </mxCell>
        <mxCell id="jczUA39xuyqM4jGfMrnq-47" value="&lt;font style=&quot;font-size: 8px;&quot;&gt;Запрос&lt;/font&gt;" style="text;html=1;align=center;verticalAlign=middle;whiteSpace=wrap;rounded=0;" parent="D9Ns9_MXgBlrkdU56EB6-1" vertex="1">
          <mxGeometry x="430" y="342.5" width="40" height="10" as="geometry" />
        </mxCell>
        <mxCell id="jczUA39xuyqM4jGfMrnq-48" value="" style="endArrow=none;html=1;rounded=0;" parent="D9Ns9_MXgBlrkdU56EB6-1" edge="1">
          <mxGeometry width="50" height="50" relative="1" as="geometry">
            <mxPoint x="440" y="367.5" as="sourcePoint" />
            <mxPoint x="460" y="357.5" as="targetPoint" />
          </mxGeometry>
        </mxCell>
        <mxCell id="jczUA39xuyqM4jGfMrnq-49" value="" style="endArrow=none;html=1;rounded=0;" parent="D9Ns9_MXgBlrkdU56EB6-1" edge="1">
          <mxGeometry width="50" height="50" relative="1" as="geometry">
            <mxPoint x="600" y="457.5" as="sourcePoint" />
            <mxPoint x="620" y="447.5" as="targetPoint" />
          </mxGeometry>
        </mxCell>
        <mxCell id="jczUA39xuyqM4jGfMrnq-50" value="" style="endArrow=none;html=1;rounded=0;" parent="D9Ns9_MXgBlrkdU56EB6-1" edge="1">
          <mxGeometry width="50" height="50" relative="1" as="geometry">
            <mxPoint x="600" y="437.5" as="sourcePoint" />
            <mxPoint x="620" y="447.5" as="targetPoint" />
          </mxGeometry>
        </mxCell>
        <mxCell id="jczUA39xuyqM4jGfMrnq-51" value="" style="endArrow=none;html=1;rounded=0;" parent="D9Ns9_MXgBlrkdU56EB6-1" edge="1">
          <mxGeometry width="50" height="50" relative="1" as="geometry">
            <mxPoint x="600" y="437.5" as="sourcePoint" />
            <mxPoint x="620" y="427.5" as="targetPoint" />
          </mxGeometry>
        </mxCell>
        <mxCell id="jczUA39xuyqM4jGfMrnq-52" value="&lt;font style=&quot;font-size: 8px;&quot;&gt;Задание на выполнение вычислений&lt;/font&gt;" style="text;html=1;align=center;verticalAlign=middle;whiteSpace=wrap;rounded=0;" parent="D9Ns9_MXgBlrkdU56EB6-1" vertex="1">
          <mxGeometry x="580" y="387.5" width="60" height="30" as="geometry" />
        </mxCell>
        <mxCell id="jczUA39xuyqM4jGfMrnq-53" value="" style="endArrow=none;html=1;rounded=0;" parent="D9Ns9_MXgBlrkdU56EB6-1" edge="1">
          <mxGeometry width="50" height="50" relative="1" as="geometry">
            <mxPoint x="760" y="517.5" as="sourcePoint" />
            <mxPoint x="780" y="507.5" as="targetPoint" />
          </mxGeometry>
        </mxCell>
        <mxCell id="jczUA39xuyqM4jGfMrnq-54" value="" style="endArrow=none;html=1;rounded=0;" parent="D9Ns9_MXgBlrkdU56EB6-1" edge="1">
          <mxGeometry width="50" height="50" relative="1" as="geometry">
            <mxPoint x="760" y="497.5" as="sourcePoint" />
            <mxPoint x="780" y="507.5" as="targetPoint" />
          </mxGeometry>
        </mxCell>
        <mxCell id="jczUA39xuyqM4jGfMrnq-55" value="" style="endArrow=none;html=1;rounded=0;" parent="D9Ns9_MXgBlrkdU56EB6-1" edge="1">
          <mxGeometry width="50" height="50" relative="1" as="geometry">
            <mxPoint x="760" y="497.5" as="sourcePoint" />
            <mxPoint x="780" y="487.5" as="targetPoint" />
          </mxGeometry>
        </mxCell>
        <mxCell id="jczUA39xuyqM4jGfMrnq-56" value="&lt;font style=&quot;font-size: 8px;&quot;&gt;Результаты выполнения вычислений&lt;/font&gt;" style="text;html=1;align=center;verticalAlign=middle;whiteSpace=wrap;rounded=0;" parent="D9Ns9_MXgBlrkdU56EB6-1" vertex="1">
          <mxGeometry x="740" y="447.5" width="60" height="30" as="geometry" />
        </mxCell>
      </root>
    </mxGraphModel>
  </diagram>
</mxfile>
